<?xml version="1.0" encoding="utf-8"?>
<!-- Generator: Adobe Illustrator 22.1.0, SVG Export Plug-In . SVG Version: 6.00 Build 0)  -->
<svg version="1.1" id="Layer_1" xmlns="http://www.w3.org/2000/svg" xmlns:xlink="http://www.w3.org/1999/xlink" x="0px" y="0px"
	 viewBox="0 0 20 20" style="enable-background:new 0 0 20 20;" xml:space="preserve">
<title>zoom-out</title>
<desc>Created with Sketch.</desc>
<g id="Lesson6_Numberline">
	<g id="Lesson6-_Icons" transform="translate(-259.000000, -198.000000)">
		<g id="icn_zoom_out_blk" transform="translate(259.000000, 198.000000)">
			<path id="zoom-out" d="M11.9,9.3l-7.2,0c-0.5,0-0.8-0.2-0.8-0.6l0-1.2c0-0.5,0.3-0.7,0.8-0.7l7.2,0c0.5,0,0.8,0.2,0.8,0.7l0,1.1
				C12.7,9,12.5,9.3,11.9,9.3L11.9,9.3z M19.4,17.7l-4.6-4.6C16,11.7,16.7,10,16.7,8c0-2.2-0.8-4.1-2.5-5.7C12.6,0.8,10.6,0,8.3,0
				S4.1,0.8,2.4,2.4C0.8,3.9,0,5.8,0,8c0,2.2,0.8,4.1,2.4,5.7c1.6,1.6,3.6,2.3,5.9,2.3c1.6,0,3-0.4,4.3-1.2l4.8,4.8
				c0.4,0.4,0.8,0.4,1.2,0.1l0.8-0.8C19.9,18.5,19.8,18.1,19.4,17.7L19.4,17.7z M12.7,12.3c-1.2,1.2-2.7,1.8-4.4,1.8
				s-3.2-0.6-4.4-1.8C2.7,11.1,2.1,9.7,2.1,8c0-1.6,0.6-3.1,1.8-4.2C5.1,2.6,6.6,2,8.3,2s3.2,0.6,4.4,1.8C14,5,14.6,6.4,14.6,8
				C14.6,9.7,14,11.1,12.7,12.3L12.7,12.3z"/>
		</g>
	</g>
</g>
</svg>
