<?xml version="1.0" encoding="UTF-8"?>
<svg width="20px" height="20px" viewBox="0 0 20 20" version="1.1" xmlns="http://www.w3.org/2000/svg" xmlns:xlink="http://www.w3.org/1999/xlink">
    <!-- Generator: Sketch 50.2 (55047) - http://www.bohemiancoding.com/sketch -->
    <title>zoom-in</title>
    <desc>Created with Sketch.</desc>
    <defs></defs>
    <g id="Lesson6_Numberline" stroke="none" stroke-width="1" fill="none" fill-rule="evenodd">
        <g id="Lesson6-_Icons" transform="translate(-91.000000, -198.000000)" fill="#000000">
            <g id="icn_zoom_in_blk" transform="translate(91.000000, 198.000000)">
                <path d="M19.4310187,17.7038439 L14.8000388,13.1048935 C16.0473757,11.6569191 16.6734614,9.9666084 16.6734614,8.03093979 C16.6734614,5.82936603 15.8551988,3.94083515 14.2186734,2.36474282 C12.596652,0.788650495 10.6374146,1.77635684e-15 8.33673071,1.77635684e-15 C6.03604685,1.77635684e-15 4.06774443,0.788650495 2.43121911,2.36474282 C0.809802041,3.94083515 -4.4408921e-14,5.82936603 -4.4408921e-14,8.03093979 C-4.4408921e-14,10.2470175 0.810406371,12.1434046 2.43121911,13.7207056 C4.06774443,15.282294 6.03604685,16.0624839 8.33612638,16.0624839 C9.94545685,16.0624839 11.383762,15.6720868 12.6601067,14.9082138 L17.4663422,19.6781896 C17.8923948,20.0873209 18.2930655,20.1066595 18.6653327,19.7343923 L19.484804,18.904043 C19.8570712,18.5112286 19.8389413,18.1129752 19.4310187,17.7038439 L19.4310187,17.7038439 Z M12.7344393,12.2866308 C11.5215492,13.4535918 10.0560492,14.0367701 8.33612638,14.0367701 C6.61620354,14.0367701 5.14405595,13.4529875 3.92028794,12.2866308 C2.7080022,11.1075832 2.10185933,9.68922098 2.10185933,8.03154412 C2.10185933,6.38595385 2.7080022,4.97303059 3.92028794,3.79458732 C5.14345162,2.61614406 6.61559921,2.02631809 8.33612638,2.02631809 C10.0566536,2.02631809 11.5215492,2.61674839 12.7344393,3.79458732 C13.9569986,4.97303059 14.5697891,6.38595385 14.5697891,8.03154412 C14.5697891,9.68861665 13.9569986,11.1057702 12.7344393,12.2866308 L12.7344393,12.2866308 Z M12.7277916,7.50879877 C12.7151007,7.02050023 12.4473826,6.77695529 11.9246372,6.77635096 L9.59011088,6.77332931 L9.59313253,4.41281679 C9.61609707,3.88886278 9.37738676,3.62718795 8.87760595,3.62839661 L7.6913064,3.62597929 C7.27431878,3.63867021 7.06582497,3.90699268 7.06582497,4.42973803 L7.06461631,6.77030766 L4.70772977,6.76728601 C4.18377577,6.74432147 3.92210093,6.98303178 3.92330959,7.48281259 L3.92089227,8.66911214 C3.9335832,9.08609976 4.20190566,9.29459357 4.72465101,9.29459357 L7.06280332,9.29580223 L7.06099033,11.6351632 C7.0724726,12.1712038 7.31662187,12.4401306 7.79404248,12.4401306 L8.85161977,12.4328786 C9.33991831,12.4201877 9.58346325,12.1524696 9.58406758,11.6303286 L9.58708923,9.29821955 L11.9294719,9.30003254 C12.4655125,9.28855027 12.7338349,9.044401 12.7338349,8.56698039 L12.7277916,7.50879877 L12.7277916,7.50879877 Z" id="zoom-in"></path>
            </g>
        </g>
    </g>
</svg>