<?xml version="1.0" encoding="UTF-8"?>
<svg width="21px" height="17px" viewBox="0 0 21 17" version="1.1" xmlns="http://www.w3.org/2000/svg" xmlns:xlink="http://www.w3.org/1999/xlink">
    <!-- Generator: Sketch 50.2 (55047) - http://www.bohemiancoding.com/sketch -->
    <title>Group 6</title>
    <desc>Created with Sketch.</desc>
    <defs></defs>
    <g id="Lesson6_Numberline" stroke="none" stroke-width="1" fill="none" fill-rule="evenodd">
        <g id="Lesson6-_Icons" transform="translate(-257.000000, -88.000000)" fill="#000000">
            <g id="icn_arrow_blk" transform="translate(257.000000, 88.000000)">
                <g id="Group-6">
                    <path d="M2.46759897,11.0470985 C1.6918138,6.65822278 4.17218847,2.37807975 8.31470371,1.26809614 C10.8689594,0.58368538 13.5512516,1.25335361 15.5882924,2.96330756 L18.5384205,0.212268604 L20.3869943,8.05973796 L12.6875909,5.66825548 L14.4813587,3.99554002 C12.8282054,2.67795836 10.7106274,2.17902458 8.70293227,2.71698488 C5.21810079,3.65074266 3.15487464,7.39423832 4.02465828,11.1795434 C5.1769521,11.5982611 6,12.703014 6,14 C6,15.6568542 4.65685425,17 3,17 C1.34314575,17 0,15.6568542 0,14 C0,12.5248378 1.06471677,11.2983535 2.46759897,11.0470985 Z" id="Combined-Shape"></path>
                </g>
            </g>
        </g>
    </g>
</svg>