<?xml version="1.0" encoding="UTF-8"?>
<svg width="20px" height="20px" viewBox="0 0 20 20" version="1.1" xmlns="http://www.w3.org/2000/svg" xmlns:xlink="http://www.w3.org/1999/xlink">
    <!-- Generator: Sketch 50.2 (55047) - http://www.bohemiancoding.com/sketch -->
    <title>info-sign</title>
    <desc>Created with Sketch.</desc>
    <defs></defs>
    <g id="Lesson6_Numberline" stroke="none" stroke-width="1" fill="none" fill-rule="evenodd">
        <g id="Lesson6-_Icons" transform="translate(-595.000000, -201.000000)" fill="#000000">
            <g id="icn_info_blk" transform="translate(595.000000, 201.000000)">
                <path d="M16.4680725,3.50206639 C14.7392716,1.79293814 12.5830397,0.898730826 9.99997288,0.819444444 C7.39663731,0.898730826 5.2308672,1.79293814 3.50206639,3.50206639 C1.79293814,5.2308672 0.898730826,7.39663731 0.819444444,9.99997288 C0.899326965,12.5830397 1.79353428,14.7386755 3.50206639,16.4680725 C5.2308672,18.1968733 7.39663731,19.0910806 9.99997288,19.1506944 C12.5830397,19.0910806 14.7380794,18.1968733 16.4680725,16.4680725 C18.1980655,14.7392716 19.0910806,12.5830397 19.1506944,9.99997288 C19.0910806,7.39663731 18.1968733,5.2308672 16.4680725,3.50206639 L16.4680725,3.50206639 Z M7.305,7.97222222 L11.6938889,8 L11.6938889,14.5833333 L12.6938889,14.5833333 C13.0461111,14.62 13.24,14.815 13.2772222,15.1666667 C13.2411111,15.5372222 13.0461111,15.7316667 12.6938889,15.75 L7.16611111,15.75 C6.81444444,15.7316667 6.62055556,15.5372222 6.58277778,15.1666667 C6.61944444,14.8144444 6.81444444,14.6205556 7.16611111,14.5833333 L8.38833333,14.5833333 L8.38833333,9.16666667 L7.305,9.13833333 C6.95333333,9.12 6.76777778,8.935 6.74944444,8.58277778 C6.76833333,8.21277778 6.95388889,8.00888889 7.305,7.97222222 L7.305,7.97222222 Z M8.83277778,3.83277778 C9.16722222,3.51888889 9.56444444,3.35111111 10.0277778,3.33333333 C10.4905556,3.35111111 10.8794444,3.51833333 11.1944444,3.83277778 C11.5088889,4.14777778 11.6761111,4.54611111 11.6944444,5.02722222 C11.6761111,5.49 11.5088889,5.87888889 11.1944444,6.19388889 C10.8805556,6.50888889 10.4905556,6.67555556 10.0277778,6.69388889 C9.56444444,6.675 9.16666667,6.50888889 8.83333333,6.19388889 C8.51944444,5.88 8.36111111,5.49 8.36111111,5.02722222 C8.36111111,4.54611111 8.51833333,4.14833333 8.83277778,3.83277778 L8.83277778,3.83277778 Z M18.6388889,4.94388889 C19.5083333,6.44444444 19.9627778,8.12944444 20,10 C19.9627778,11.87 19.5083333,13.555 18.6388889,15.0555556 C17.7488889,16.5555556 16.5455556,17.75 15.0277778,18.6388889 C13.5277778,19.5277778 11.8516667,19.9816667 10,20 C8.12944444,19.9816667 6.44444444,19.5272222 4.94333333,18.6388889 C3.44333333,17.7494444 2.24888889,16.5555556 1.36,15.0555556 C0.471111111,13.5555556 0.0177777778,11.8705556 0,10 C0.0177777778,8.12944444 0.472222222,6.44444444 1.36,4.94388889 C2.25,3.44388889 3.44333333,2.24944444 4.94333333,1.36055556 C6.44388889,0.472222222 8.12888889,0.0177777778 10,0 C11.8516667,0.0177777778 13.5277778,0.472222222 15.0277778,1.36055556 C16.5461111,2.25 17.7494444,3.44388889 18.6388889,4.94388889 L18.6388889,4.94388889 Z" id="info-sign"></path>
            </g>
        </g>
    </g>
</svg>