<?xml version="1.0" encoding="UTF-8"?>
<svg width="20px" height="20px" viewBox="0 0 20 20" version="1.1" xmlns="http://www.w3.org/2000/svg" xmlns:xlink="http://www.w3.org/1999/xlink">
    <!-- Generator: Sketch 50.2 (55047) - http://www.bohemiancoding.com/sketch -->
    <title>cog</title>
    <desc>Created with Sketch.</desc>
    <defs></defs>
    <g id="Lesson6_Numberline" stroke="none" stroke-width="1" fill="none" fill-rule="evenodd">
        <g id="Lesson6-_Icons" transform="translate(-426.000000, -198.000000)" fill="#000000">
            <g id="icn_cog_blk" transform="translate(426.000000, 198.000000)">
                <path d="M12.8447764,12.8441514 C13.5947998,12.0747523 13.9904372,11.137223 14.0323135,10.0315635 C13.9904372,8.88590268 13.5947998,7.93774805 12.8447764,7.18834964 C12.0741273,6.41770055 11.1259727,6.02143817 10.0009375,6.00081253 C8.87590237,6.02143817 7.92774774,6.41770055 7.15772368,7.18834964 C6.40770024,7.93837307 6.02206319,8.88590268 6.00143754,10.0315635 C6.02206319,11.137223 6.40770024,12.0747523 7.15772368,12.8441514 C7.92774774,13.5941748 8.87652739,13.9898122 10.0009375,14.0316885 C11.1259727,13.9898122 12.0735023,13.5941748 12.8447764,12.8441514 L12.8447764,12.8441514 Z M15.6254883,1.78193069 C15.7504922,1.78193069 15.8648708,1.82318197 15.969249,1.90693459 C16.2192569,2.1569424 16.6361449,2.56258008 17.2192881,3.12572268 C17.8036814,3.7088659 18.1255664,4.13637926 18.1886934,4.40701272 C18.1886934,4.49014032 18.1568174,4.58451827 18.0955655,4.68827151 C17.6374262,5.27141473 17.1786618,5.86518329 16.7205225,6.46957717 C16.928654,6.8864652 17.1161599,7.32397887 17.2830401,7.78274321 L19.6262383,8.12587893 C19.8549955,8.18838089 19.9793744,8.34463577 20.00125,8.59464358 L20.00125,11.4697334 C19.9806244,11.7197412 19.8562455,11.8759961 19.6262383,11.9384981 L17.2192881,12.3447608 C17.0949092,12.7403981 16.928029,13.1366605 16.7192725,13.5322979 C17.1774118,14.1366918 17.6461764,14.7304603 18.1255664,15.3129785 C18.1886934,15.3961061 18.2193194,15.5004844 18.2193194,15.6254883 C18.2193194,15.7504922 18.1880684,15.8442451 18.1255664,15.9067471 C17.9380606,16.1980062 17.5424232,16.6361449 16.9386543,17.2192881 C16.3336354,17.823682 15.8967468,18.1568174 15.6254883,18.2205694 C15.5004844,18.2205694 15.3961061,18.1880684 15.3129785,18.1268165 L13.5010469,16.7205225 C13.1260352,16.928654 12.7197725,17.0955342 12.2828838,17.2205381 C12.2197569,18.0324385 12.1060033,18.8343386 11.9384981,19.6268633 C11.8553705,19.8749961 11.6991156,20 11.4697334,20 L8.53214163,20 C8.28213382,19.9793744 8.12587893,19.8543704 8.06337698,19.6249883 L7.68836526,17.217413 C7.29335292,17.0924091 6.90709085,16.9261539 6.53270415,16.7173974 L4.68827151,18.1249414 C4.60514391,18.1874434 4.51139098,18.2186943 4.40701272,18.2186943 C4.26138317,18.2186943 4.13637926,18.1861933 4.032001,18.1249414 C3.78199319,17.8955592 3.36510516,17.4892965 2.78196194,16.9061533 C2.21944436,16.3230101 1.90693459,15.8954967 1.84443264,15.6248633 C1.84443264,15.520485 1.87568362,15.4267321 1.93818557,15.3436045 C2.37569924,14.7404606 2.83383856,14.1360668 3.31260352,13.5329229 C3.08322135,13.1360355 2.88571518,12.6997719 2.71883496,12.2191318 L0.375011719,11.9066221 C0.145629551,11.8441201 0.0206256446,11.6878652 2.84217094e-14,11.4378574 L2.84217094e-14,8.53214163 C0.0206256446,8.28213382 0.145629551,8.12587893 0.375011719,8.06337698 L2.78133692,7.65711428 C2.90634082,7.26210194 3.07259602,6.8864652 3.28135254,6.53270415 C2.84383887,5.88705897 2.37507422,5.27141473 1.8750586,4.68889653 C1.81255664,4.60576893 1.78130567,4.512016 1.78130567,4.40763774 C1.78130567,4.28263383 1.81255664,4.16825526 1.8750586,4.063877 C2.06256446,3.79324354 2.46882715,3.36573018 3.09384668,2.78258696 C3.67698991,2.17881809 4.11450358,1.84505766 4.4063877,1.78193069 C4.51076596,1.78193069 4.6145192,1.8144317 4.71889747,1.87568362 L6.53145411,3.28197756 C6.90646583,3.07384606 7.29147786,2.90696584 7.68711522,2.78196194 C7.77024282,1.97006156 7.89524673,1.16753649 8.06212694,0.375011719 C8.14525454,0.14687959 8.30150942,0.0218756836 8.53089159,0 L11.4684834,0 C11.7184912,0.0206256446 11.8747461,0.156254883 11.937248,0.406262696 L12.2822588,2.7807119 C12.6991468,2.9057158 13.0954092,3.071971 13.4691709,3.28072752 L15.3123535,1.87568362 C15.3961061,1.81318166 15.5004844,1.78193069 15.6254883,1.78193069 L15.6254883,1.78193069 Z" id="cog"></path>
            </g>
        </g>
    </g>
</svg>