<?xml version="1.0" encoding="UTF-8"?>
<svg width="20px" height="15px" viewBox="0 0 20 15" version="1.1" xmlns="http://www.w3.org/2000/svg" xmlns:xlink="http://www.w3.org/1999/xlink">
    <!-- Generator: Sketch 50.2 (55047) - http://www.bohemiancoding.com/sketch -->
    <title>erase</title>
    <desc>Created with Sketch.</desc>
    <defs></defs>
    <g id="Lesson6_Numberline" stroke="none" stroke-width="1" fill="none" fill-rule="evenodd">
        <g id="Lesson6-_Icons" transform="translate(-594.000000, -89.000000)" fill="#000000">
            <g id="icn_erase_blk" transform="translate(594.000000, 89.000000)">
                <path d="M5.52743188,7.59655994 L1.32967358,12.7085882 L9.34806852,12.7085882 L13.5264118,7.59714827 L5.52743188,7.59714827 L5.52743188,7.59655994 Z M9.66282685,0.470666663 C9.93463685,0.157084999 10.2682218,0 10.6624052,0 L18.6802118,0 C19.2244201,0.0264749998 19.6250751,0.301226664 19.8839418,0.824254993 C20.0939768,1.37258166 20.0263184,1.88266665 19.6803784,2.35333331 L10.3476468,13.6293299 C10.0634818,13.9564432 9.73048518,14.1199999 9.34806852,14.1199999 L1.32967358,14.1199999 C0.774286922,14.0947016 0.367160259,13.8193616 0.107705261,13.2963332 C-0.0899747375,12.7474182 -0.0152564048,12.2373332 0.329506926,11.7666666 L9.66282685,0.470666663 L9.66282685,0.470666663 Z" id="erase"></path>
            </g>
        </g>
    </g>
</svg>