<?xml version="1.0" encoding="UTF-8"?>
<svg width="22px" height="16px" viewBox="0 0 22 16" version="1.1" xmlns="http://www.w3.org/2000/svg" xmlns:xlink="http://www.w3.org/1999/xlink">
    <!-- Generator: Sketch 50.2 (55047) - http://www.bohemiancoding.com/sketch -->
    <title>icn_checkmark</title>
    <desc>Created with Sketch.</desc>
    <defs></defs>
    <g id="icn_checkmark" stroke="none" stroke-width="1" fill="none" fill-rule="evenodd">
        <path d="M0.4,6.6 L1.4,5.6 C1.7,5.4 2,5.2 2.4,5.2 C2.8,5.2 3.2,5.3 3.4,5.6 L8.5,10.8 L18.7,0.4 C19,0.1 19.3,0 19.7,0 C20,0 20.3,0.1 20.7,0.4 L21.6,1.3 C21.9,1.5 22,1.9 22,2.3 C22,2.6 21.9,3 21.6,3.2 L9.4,15.6 C9.1,15.8 8.8,16 8.4,16 C8.1,16 7.8,15.9 7.5,15.6 L0.4,8.4 C0.1,8.2 0,7.9 0,7.5 C0,7.1 0.1,6.8 0.4,6.6 Z" fill="#6ab04c" fill-rule="nonzero"></path>
    </g>
</svg>