<?xml version="1.0" encoding="UTF-8"?>
<svg width="16px" height="16px" viewBox="0 0 16 16" version="1.1" xmlns="http://www.w3.org/2000/svg" xmlns:xlink="http://www.w3.org/1999/xlink">
    <!-- Generator: Sketch 50.2 (55047) - http://www.bohemiancoding.com/sketch -->
    <title>icn_close</title>
    <desc>Created with Sketch.</desc>
    <defs></defs>
    <g id="icn_close" stroke="none" stroke-width="1" fill="none" fill-rule="evenodd">
        <path d="M0.524378241,3.50569161 L5.11893045,8.08049485 L0.624259811,12.5558458 C-0.0749111773,13.2520115 -0.174792747,13.9481773 0.424496671,14.5448907 C0.524378241,14.644343 0.524378241,14.644343 1.3234308,15.4399609 C2.02260179,16.1361266 2.82165435,16.2355789 3.42094376,15.4399609 L8.01549597,10.9646099 L12.5101666,15.4399609 C13.2093376,16.1361266 13.9085086,16.1361266 14.6076796,15.4399609 C14.6076796,15.4399609 15.5066137,14.5448907 15.6064953,14.4454385 C16.2057847,13.848725 16.1059031,13.1525593 15.4067321,12.4563936 L10.9120615,7.9810426 L15.4067321,3.40623937 C16.1059031,2.71007366 16.1059031,2.01390795 15.4067321,1.31774224 L14.6076796,0.621576527 C13.9085086,-0.0745891832 13.2093376,-0.0745891832 12.410285,0.621576527 L8.01549597,5.09692752 L3.52082533,0.522124282 C2.72177278,-0.174041427 2.02260179,-0.174041427 1.3234308,0.522124282 L0.524378241,1.31774224 C-0.174792747,2.01390795 -0.174792747,2.8095259 0.524378241,3.50569161 Z" fill="#d63838" fill-rule="nonzero"></path>
    </g>
</svg>